<?xml version="1.0" standalone="no"?>
<!DOCTYPE svg PUBLIC "-//W3C//DTD SVG 20010904//EN"
 "http://www.w3.org/TR/2001/REC-SVG-20010904/DTD/svg10.dtd">
<svg version="1.0" xmlns="http://www.w3.org/2000/svg"
 width="260.000000pt" height="260.000000pt" viewBox="0 0 260.000000 260.000000"
 preserveAspectRatio="xMidYMid meet">
<metadata>
Created by potrace 1.11, written by Peter Selinger 2001-2013
</metadata>
<g transform="translate(0.000000,260.000000) scale(0.100000,-0.100000)"
fill="#000000" stroke="none">
<path d="M7 2593 c-4 -3 -7 -588 -7 -1300 l0 -1293 1300 0 1300 0 0 1300 0
1300 -1293 0 c-712 0 -1297 -3 -1300 -7z m1138 -788 c78 -39 106 -124 58 -178
-22 -25 -100 -60 -113 -52 -15 9 -2 25 21 25 31 0 69 44 69 81 0 42 -52 93
-111 109 -128 35 -339 -42 -379 -139 -30 -74 15 -124 189 -208 168 -81 214
-112 246 -167 53 -91 26 -187 -84 -296 -120 -119 -278 -180 -462 -180 -161 0
-249 27 -334 102 -66 58 -89 107 -89 194 0 61 4 80 33 136 34 69 86 129 136
160 54 33 59 19 11 -32 -83 -88 -125 -219 -105 -324 22 -119 133 -192 310
-203 302 -20 579 204 495 400 -21 50 -51 71 -206 145 -152 72 -201 106 -225
153 -54 103 47 237 213 281 94 25 271 21 327 -7z m1025 -23 c0 -14 14 -20 65
-30 136 -26 215 -87 215 -166 0 -113 -159 -216 -383 -248 l-77 -11 6 -36 c33
-182 148 -381 220 -381 61 0 92 33 200 207 7 10 15 15 19 11 11 -10 -76 -169
-119 -215 -47 -52 -101 -71 -158 -54 -81 25 -143 104 -197 254 -34 97 -38 102
-66 104 -28 3 -34 -4 -80 -78 -65 -105 -164 -205 -240 -243 -51 -25 -75 -31
-157 -34 -83 -4 -103 -1 -140 17 -47 22 -78 64 -78 104 0 55 72 107 147 107
49 0 113 -18 113 -32 0 -6 -7 -7 -17 -3 -51 20 -89 17 -121 -10 -41 -34 -44
-84 -7 -120 33 -34 119 -35 190 -1 113 53 189 151 375 481 61 110 134 230 161
268 l49 67 -123 0 c-320 0 -544 -91 -602 -245 -49 -127 67 -230 184 -164 39
22 91 83 91 107 0 7 5 12 10 12 32 0 -20 -101 -70 -135 -73 -51 -162 -53 -228
-6 -66 46 -81 149 -36 239 32 65 89 115 179 158 114 55 183 66 424 70 134 2
218 7 224 13 16 16 27 13 27 -7z"/>
<path d="M2058 1569 c-113 -189 -114 -198 -21 -192 127 9 227 58 290 141 25
32 33 54 33 84 0 67 -49 102 -170 123 l-35 6 -97 -162z"/>
</g>
</svg>
