<?xml version="1.0" standalone="no"?>
<!DOCTYPE svg PUBLIC "-//W3C//DTD SVG 20010904//EN"
 "http://www.w3.org/TR/2001/REC-SVG-20010904/DTD/svg10.dtd">
<svg version="1.0" xmlns="http://www.w3.org/2000/svg"
 width="260.000000pt" height="260.000000pt" viewBox="0 0 260.000000 260.000000"
 preserveAspectRatio="xMidYMid meet">
<metadata>
Created by potrace 1.11, written by Peter Selinger 2001-2013
</metadata>
<g transform="translate(0.000000,260.000000) scale(0.100000,-0.100000)"
fill="#000000" stroke="none">
<path d="M10 1295 l0 -1295 1295 0 1295 0 0 1295 0 1295 -1295 0 -1295 0 0
-1295z m1103 524 c58 -16 107 -65 114 -115 4 -35 1 -45 -25 -76 -41 -46 -143
-80 -117 -39 3 6 15 11 26 11 27 0 69 44 69 72 0 33 -34 85 -68 102 -98 50
-325 4 -391 -80 -35 -44 -22 -134 26 -176 10 -10 83 -49 160 -87 151 -75 201
-111 227 -165 22 -47 21 -128 -3 -174 -53 -103 -199 -219 -332 -263 -66 -21
-91 -24 -229 -24 -138 0 -161 3 -212 23 -68 27 -150 99 -181 156 -16 31 -21
59 -22 111 0 60 5 81 33 137 36 74 103 148 152 168 47 19 46 7 -3 -42 -102
-102 -140 -277 -85 -383 35 -67 101 -108 206 -131 230 -48 484 51 568 223 26
52 27 59 16 110 -21 101 -37 116 -211 199 -86 42 -169 88 -184 102 -122 115
-36 280 175 336 63 17 237 20 291 5z m1067 -37 c0 -15 13 -21 63 -30 34 -6 87
-24 117 -39 45 -23 59 -37 79 -76 23 -47 23 -49 7 -92 -37 -96 -168 -172 -354
-205 -71 -13 -72 -14 -78 -48 -9 -47 9 -117 51 -203 47 -95 101 -168 131 -175
61 -15 124 34 182 143 32 61 48 80 58 70 10 -10 -78 -170 -118 -213 -117 -127
-271 -49 -354 180 -25 69 -59 102 -96 92 -14 -4 -44 -38 -78 -87 -121 -177
-271 -263 -425 -243 -104 13 -165 60 -165 127 0 30 32 73 70 92 49 25 200 13
200 -17 0 -6 -9 -8 -22 -4 -78 21 -96 19 -128 -12 -35 -35 -40 -78 -12 -112
14 -18 32 -24 74 -28 71 -6 114 9 187 64 83 62 149 154 273 379 28 49 82 144
122 210 39 66 76 135 82 152 l12 33 -97 0 c-174 0 -361 -39 -454 -94 -98 -57
-169 -170 -153 -244 8 -36 51 -78 89 -87 66 -17 158 35 187 105 13 30 30 41
30 18 -1 -38 -42 -100 -85 -127 -66 -42 -132 -49 -190 -21 -63 30 -88 70 -93
145 -3 51 0 70 21 112 49 96 168 174 314 207 102 23 291 36 400 28 68 -5 97
-4 110 5 24 18 43 16 43 -5z"/>
<path d="M2073 1592 c-46 -76 -83 -147 -83 -158 0 -11 6 -28 14 -39 11 -16 22
-17 75 -12 122 13 239 92 261 177 6 25 14 53 16 63 4 11 -5 28 -25 46 -28 26
-63 39 -156 56 -16 3 -35 -21 -102 -133z"/>
</g>
</svg>
